<mxfile host="65bd71144e">
    <diagram id="dBR9Ve6dmE6tgGayQaAm" name="Page-1">
        <mxGraphModel dx="1723" dy="729" grid="1" gridSize="10" guides="1" tooltips="1" connect="1" arrows="1" fold="1" page="1" pageScale="1" pageWidth="850" pageHeight="1100" math="0" shadow="0">
            <root>
                <mxCell id="0"/>
                <mxCell id="1" parent="0"/>
                <mxCell id="10" style="edgeStyle=none;html=1;" edge="1" parent="1" source="3" target="9">
                    <mxGeometry relative="1" as="geometry"/>
                </mxCell>
                <mxCell id="3" value="add to midi logs" style="whiteSpace=wrap;html=1;" vertex="1" parent="1">
                    <mxGeometry x="235" y="200" width="90" height="40" as="geometry"/>
                </mxCell>
                <mxCell id="5" style="edgeStyle=none;html=1;" edge="1" parent="1" source="4">
                    <mxGeometry relative="1" as="geometry">
                        <mxPoint x="280" y="200" as="targetPoint"/>
                    </mxGeometry>
                </mxCell>
                <mxCell id="4" value="midi message" style="text;strokeColor=none;align=center;fillColor=none;html=1;verticalAlign=middle;whiteSpace=wrap;rounded=0;" vertex="1" parent="1">
                    <mxGeometry x="245" y="140" width="70" height="30" as="geometry"/>
                </mxCell>
                <mxCell id="11" style="edgeStyle=none;html=1;entryX=0.5;entryY=0;entryDx=0;entryDy=0;" edge="1" parent="1" source="9" target="12">
                    <mxGeometry relative="1" as="geometry">
                        <mxPoint x="160" y="410" as="targetPoint"/>
                        <Array as="points">
                            <mxPoint x="375" y="315"/>
                        </Array>
                    </mxGeometry>
                </mxCell>
                <mxCell id="33" value="Yes" style="edgeLabel;html=1;align=center;verticalAlign=middle;resizable=0;points=[];" vertex="1" connectable="0" parent="11">
                    <mxGeometry x="-0.8" relative="1" as="geometry">
                        <mxPoint x="13" as="offset"/>
                    </mxGeometry>
                </mxCell>
                <mxCell id="9" value="isSysex" style="rhombus;whiteSpace=wrap;html=1;" vertex="1" parent="1">
                    <mxGeometry x="220" y="290" width="120" height="50" as="geometry"/>
                </mxCell>
                <mxCell id="14" style="edgeStyle=none;html=1;" edge="1" parent="1" source="12" target="13">
                    <mxGeometry relative="1" as="geometry"/>
                </mxCell>
                <mxCell id="12" value="set preset value" style="whiteSpace=wrap;html=1;" vertex="1" parent="1">
                    <mxGeometry x="315" y="350" width="120" height="30" as="geometry"/>
                </mxCell>
                <mxCell id="18" style="edgeStyle=none;html=1;entryX=0.811;entryY=0.346;entryDx=0;entryDy=0;dashed=1;dashPattern=8 8;endArrow=blockThin;endFill=0;entryPerimeter=0;" edge="1" parent="1" source="13" target="37">
                    <mxGeometry relative="1" as="geometry">
                        <mxPoint x="190" y="500" as="targetPoint"/>
                    </mxGeometry>
                </mxCell>
                <mxCell id="13" value="update loading advancement" style="whiteSpace=wrap;html=1;" vertex="1" parent="1">
                    <mxGeometry x="315" y="410" width="120" height="40" as="geometry"/>
                </mxCell>
                <mxCell id="23" style="edgeStyle=none;html=1;entryX=0.5;entryY=0;entryDx=0;entryDy=0;" edge="1" parent="1" target="16">
                    <mxGeometry relative="1" as="geometry">
                        <mxPoint x="130" y="350" as="sourcePoint"/>
                    </mxGeometry>
                </mxCell>
                <mxCell id="24" style="edgeStyle=none;html=1;entryX=0.5;entryY=0;entryDx=0;entryDy=0;" edge="1" parent="1" source="16">
                    <mxGeometry relative="1" as="geometry">
                        <mxPoint x="129.99999999999977" y="470" as="targetPoint"/>
                    </mxGeometry>
                </mxCell>
                <mxCell id="16" value="sendSysex" style="whiteSpace=wrap;html=1;" vertex="1" parent="1">
                    <mxGeometry x="70" y="380" width="120" height="60" as="geometry"/>
                </mxCell>
                <mxCell id="21" style="edgeStyle=none;html=1;" edge="1" parent="1" source="20" target="16">
                    <mxGeometry relative="1" as="geometry">
                        <mxPoint x="130" y="290" as="targetPoint"/>
                        <Array as="points">
                            <mxPoint x="10" y="600"/>
                            <mxPoint x="10" y="340"/>
                            <mxPoint x="130" y="340"/>
                        </Array>
                    </mxGeometry>
                </mxCell>
                <mxCell id="30" value="No" style="edgeLabel;html=1;align=center;verticalAlign=middle;resizable=0;points=[];" vertex="1" connectable="0" parent="21">
                    <mxGeometry x="-0.8689" y="3" relative="1" as="geometry">
                        <mxPoint x="20" y="-3" as="offset"/>
                    </mxGeometry>
                </mxCell>
                <mxCell id="27" value="" style="edgeStyle=none;html=1;" edge="1" parent="1" source="20" target="26">
                    <mxGeometry relative="1" as="geometry"/>
                </mxCell>
                <mxCell id="31" value="Yes" style="edgeLabel;html=1;align=center;verticalAlign=middle;resizable=0;points=[];" vertex="1" connectable="0" parent="27">
                    <mxGeometry x="-0.4159" y="2" relative="1" as="geometry">
                        <mxPoint as="offset"/>
                    </mxGeometry>
                </mxCell>
                <mxCell id="20" value="has loaded all settings" style="rhombus;whiteSpace=wrap;html=1;" vertex="1" parent="1">
                    <mxGeometry x="70" y="560" width="120" height="80" as="geometry"/>
                </mxCell>
                <mxCell id="25" style="edgeStyle=none;html=1;exitX=1;exitY=0.5;exitDx=0;exitDy=0;" edge="1" parent="1" source="37" target="20">
                    <mxGeometry relative="1" as="geometry">
                        <mxPoint x="129.99999999999977" y="530" as="sourcePoint"/>
                        <Array as="points">
                            <mxPoint x="190" y="540"/>
                            <mxPoint x="130" y="540"/>
                        </Array>
                    </mxGeometry>
                </mxCell>
                <mxCell id="39" value="recieved" style="edgeLabel;html=1;align=center;verticalAlign=middle;resizable=0;points=[];" vertex="1" connectable="0" parent="25">
                    <mxGeometry x="-0.8389" relative="1" as="geometry">
                        <mxPoint as="offset"/>
                    </mxGeometry>
                </mxCell>
                <mxCell id="26" value="" style="ellipse;whiteSpace=wrap;html=1;fillStyle=solid;gradientDirection=north;strokeColor=#F00707;" vertex="1" parent="1">
                    <mxGeometry x="235" y="580" width="40" height="40" as="geometry"/>
                </mxCell>
                <mxCell id="29" style="edgeStyle=none;html=1;entryX=0.833;entryY=-0.017;entryDx=0;entryDy=0;entryPerimeter=0;" edge="1" parent="1" source="28" target="16">
                    <mxGeometry relative="1" as="geometry">
                        <mxPoint x="168.03999999999996" y="290.6" as="targetPoint"/>
                    </mxGeometry>
                </mxCell>
                <mxCell id="28" value="" style="ellipse;whiteSpace=wrap;html=1;fillStyle=solid;" vertex="1" parent="1">
                    <mxGeometry x="150" y="310" width="40" height="40" as="geometry"/>
                </mxCell>
                <mxCell id="37" value="wait to recieve &lt;br&gt;setting value" style="rhombus;whiteSpace=wrap;html=1;fillStyle=solid;strokeColor=#F0F0F0;fillColor=default;gradientColor=none;gradientDirection=north;" vertex="1" parent="1">
                    <mxGeometry x="70" y="470" width="120" height="60" as="geometry"/>
                </mxCell>
                <mxCell id="40" style="edgeStyle=none;html=1;entryX=0.25;entryY=0;entryDx=0;entryDy=0;endArrow=classic;endFill=1;" edge="1" parent="1" source="37" target="16">
                    <mxGeometry relative="1" as="geometry">
                        <Array as="points">
                            <mxPoint x="30" y="500"/>
                            <mxPoint x="30" y="350"/>
                            <mxPoint x="100" y="350"/>
                        </Array>
                    </mxGeometry>
                </mxCell>
                <mxCell id="41" value="Not recieved" style="edgeLabel;html=1;align=center;verticalAlign=middle;resizable=0;points=[];" vertex="1" connectable="0" parent="40">
                    <mxGeometry x="-0.9023" y="-1" relative="1" as="geometry">
                        <mxPoint x="-6" y="-19" as="offset"/>
                    </mxGeometry>
                </mxCell>
                <mxCell id="44" style="edgeStyle=none;html=1;endArrow=classic;endFill=1;" edge="1" parent="1" source="42">
                    <mxGeometry relative="1" as="geometry">
                        <mxPoint x="990" y="772.3529411764706" as="targetPoint"/>
                    </mxGeometry>
                </mxCell>
                <mxCell id="42" value="RecieveMessage" style="whiteSpace=wrap;html=1;fillStyle=solid;strokeColor=#F0F0F0;fillColor=default;gradientColor=none;gradientDirection=north;" vertex="1" parent="1">
                    <mxGeometry x="930" y="150" width="120" height="60" as="geometry"/>
                </mxCell>
                <mxCell id="45" style="edgeStyle=none;html=1;endArrow=classic;endFill=1;startArrow=none;" edge="1" parent="1" source="48">
                    <mxGeometry relative="1" as="geometry">
                        <mxPoint x="840" y="782.3529411764706" as="targetPoint"/>
                    </mxGeometry>
                </mxCell>
                <mxCell id="43" value="UseSettings" style="whiteSpace=wrap;html=1;fillStyle=solid;strokeColor=#F0F0F0;fillColor=default;gradientColor=none;gradientDirection=north;" vertex="1" parent="1">
                    <mxGeometry x="780" y="150" width="120" height="60" as="geometry"/>
                </mxCell>
                <mxCell id="46" style="edgeStyle=none;html=1;endArrow=classic;endFill=1;startArrow=none;" edge="1" parent="1" source="60">
                    <mxGeometry relative="1" as="geometry">
                        <mxPoint x="1130" y="782.3529411764707" as="targetPoint"/>
                    </mxGeometry>
                </mxCell>
                <mxCell id="47" value="Clavier Midi" style="whiteSpace=wrap;html=1;fillStyle=solid;strokeColor=#F0F0F0;fillColor=default;gradientColor=none;gradientDirection=north;" vertex="1" parent="1">
                    <mxGeometry x="1070" y="150" width="120" height="60" as="geometry"/>
                </mxCell>
                <mxCell id="49" value="" style="edgeStyle=none;html=1;endArrow=none;endFill=1;" edge="1" parent="1" source="43" target="48">
                    <mxGeometry relative="1" as="geometry">
                        <mxPoint x="840" y="782.3529411764707" as="targetPoint"/>
                        <mxPoint x="840" y="210" as="sourcePoint"/>
                    </mxGeometry>
                </mxCell>
                <mxCell id="57" style="edgeStyle=none;html=1;endArrow=classic;endFill=1;" edge="1" parent="1">
                    <mxGeometry relative="1" as="geometry">
                        <mxPoint x="1130" y="305" as="targetPoint"/>
                        <mxPoint x="850" y="300" as="sourcePoint"/>
                    </mxGeometry>
                </mxCell>
                <mxCell id="58" value="MIDI Message" style="edgeLabel;html=1;align=center;verticalAlign=middle;resizable=0;points=[];" vertex="1" connectable="0" parent="57">
                    <mxGeometry x="-0.5774" relative="1" as="geometry">
                        <mxPoint as="offset"/>
                    </mxGeometry>
                </mxCell>
                <mxCell id="48" value="" style="whiteSpace=wrap;html=1;fillStyle=solid;strokeColor=#F0F0F0;fillColor=default;gradientColor=none;gradientDirection=north;" vertex="1" parent="1">
                    <mxGeometry x="835" y="240" width="10" height="200" as="geometry"/>
                </mxCell>
                <mxCell id="51" style="edgeStyle=none;html=1;endArrow=classic;endFill=1;startArrow=none;" edge="1" parent="1" source="52">
                    <mxGeometry relative="1" as="geometry">
                        <mxPoint x="670" y="818.5714285714286" as="targetPoint"/>
                    </mxGeometry>
                </mxCell>
                <mxCell id="50" value="User" style="whiteSpace=wrap;html=1;fillStyle=solid;strokeColor=#F0F0F0;fillColor=default;gradientColor=none;gradientDirection=north;" vertex="1" parent="1">
                    <mxGeometry x="610" y="150" width="120" height="60" as="geometry"/>
                </mxCell>
                <mxCell id="53" value="" style="edgeStyle=none;html=1;endArrow=none;endFill=1;" edge="1" parent="1" source="50" target="52">
                    <mxGeometry relative="1" as="geometry">
                        <mxPoint x="670" y="818.5714285714282" as="targetPoint"/>
                        <mxPoint x="670" y="210" as="sourcePoint"/>
                    </mxGeometry>
                </mxCell>
                <mxCell id="54" style="edgeStyle=none;html=1;entryX=-0.079;entryY=0.064;entryDx=0;entryDy=0;entryPerimeter=0;endArrow=classic;endFill=1;" edge="1" parent="1" source="52" target="48">
                    <mxGeometry relative="1" as="geometry"/>
                </mxCell>
                <mxCell id="55" value="LoadSettings" style="edgeLabel;html=1;align=center;verticalAlign=middle;resizable=0;points=[];" vertex="1" connectable="0" parent="54">
                    <mxGeometry x="-0.3712" y="-2" relative="1" as="geometry">
                        <mxPoint x="23" y="-2" as="offset"/>
                    </mxGeometry>
                </mxCell>
                <mxCell id="52" value="" style="whiteSpace=wrap;html=1;fillStyle=solid;strokeColor=#F0F0F0;fillColor=default;gradientColor=none;gradientDirection=north;" vertex="1" parent="1">
                    <mxGeometry x="660" y="240" width="20" height="20" as="geometry"/>
                </mxCell>
                <mxCell id="62" value="" style="edgeStyle=none;html=1;endArrow=none;endFill=1;" edge="1" parent="1" source="47" target="60">
                    <mxGeometry relative="1" as="geometry">
                        <mxPoint x="1130" y="782.3529411764707" as="targetPoint"/>
                        <mxPoint x="1130" y="210" as="sourcePoint"/>
                    </mxGeometry>
                </mxCell>
                <mxCell id="63" style="edgeStyle=none;html=1;endArrow=classic;endFill=1;" edge="1" parent="1" source="60">
                    <mxGeometry relative="1" as="geometry">
                        <mxPoint x="990" y="360" as="targetPoint"/>
                    </mxGeometry>
                </mxCell>
                <mxCell id="64" value="MIDI Message" style="edgeLabel;html=1;align=center;verticalAlign=middle;resizable=0;points=[];" vertex="1" connectable="0" parent="63">
                    <mxGeometry x="0.5802" y="-2" relative="1" as="geometry">
                        <mxPoint x="42" y="2" as="offset"/>
                    </mxGeometry>
                </mxCell>
                <mxCell id="60" value="" style="whiteSpace=wrap;html=1;fillStyle=solid;strokeColor=#F0F0F0;fillColor=none;gradientColor=none;gradientDirection=north;" vertex="1" parent="1">
                    <mxGeometry x="1125" y="287.5" width="10" height="145" as="geometry"/>
                </mxCell>
                <mxCell id="66" style="edgeStyle=none;html=1;endArrow=classic;endFill=1;" edge="1" parent="1" source="65">
                    <mxGeometry relative="1" as="geometry">
                        <mxPoint x="840" y="375" as="targetPoint"/>
                    </mxGeometry>
                </mxCell>
                <mxCell id="67" value="settingsRecieved" style="edgeLabel;html=1;align=center;verticalAlign=middle;resizable=0;points=[];" vertex="1" connectable="0" parent="66">
                    <mxGeometry x="-0.3218" relative="1" as="geometry">
                        <mxPoint x="-16" as="offset"/>
                    </mxGeometry>
                </mxCell>
                <mxCell id="65" value="" style="whiteSpace=wrap;html=1;fillStyle=solid;strokeColor=#F0F0F0;fillColor=none;gradientColor=none;gradientDirection=north;" vertex="1" parent="1">
                    <mxGeometry x="985" y="330" width="10" height="90" as="geometry"/>
                </mxCell>
                <mxCell id="56" value="" style="whiteSpace=wrap;html=1;fillStyle=solid;strokeColor=#F0F0F0;fillColor=none;gradientColor=none;gradientDirection=north;" vertex="1" parent="1">
                    <mxGeometry x="760" y="265" width="310" height="200" as="geometry"/>
                </mxCell>
                <mxCell id="68" value="loop until all settings loaded" style="whiteSpace=wrap;html=1;fillStyle=solid;strokeColor=default;fillColor=default;gradientColor=none;gradientDirection=north;" vertex="1" parent="1">
                    <mxGeometry x="760" y="265" width="70" height="55" as="geometry"/>
                </mxCell>
            </root>
        </mxGraphModel>
    </diagram>
</mxfile>